<mxfile host="Electron" modified="2023-04-16T11:15:07.376Z" agent="Mozilla/5.0 (Macintosh; Intel Mac OS X 10_15_7) AppleWebKit/537.36 (KHTML, like Gecko) draw.io/21.1.2 Chrome/106.0.5249.199 Electron/21.4.3 Safari/537.36" etag="5u_UU1lp3C_j9Bmn5LKA" version="21.1.2" type="device" pages="3">
  <diagram name="inner_loop" id="4idAPt2qaLFHL9NCIVFK">
    <mxGraphModel dx="865" dy="674" grid="1" gridSize="10" guides="1" tooltips="1" connect="1" arrows="1" fold="1" page="1" pageScale="1" pageWidth="3300" pageHeight="4681" math="1" shadow="0">
      <root>
        <mxCell id="0" />
        <mxCell id="1" parent="0" />
        <mxCell id="oATOaoJ81ZTIN3MY-sV3-1" value="inverse Park transform" style="rounded=0;whiteSpace=wrap;html=1;fillColor=#dae8fc;strokeColor=#000000;strokeWidth=2;" parent="1" vertex="1">
          <mxGeometry x="570" y="360" width="100" height="120" as="geometry" />
        </mxCell>
        <mxCell id="oATOaoJ81ZTIN3MY-sV3-2" value="" style="endArrow=classic;html=1;rounded=0;strokeWidth=2;entryX=0;entryY=0.25;entryDx=0;entryDy=0;exitX=1;exitY=0.25;exitDx=0;exitDy=0;" parent="1" source="oATOaoJ81ZTIN3MY-sV3-25" target="oATOaoJ81ZTIN3MY-sV3-1" edge="1">
          <mxGeometry width="50" height="50" relative="1" as="geometry">
            <mxPoint x="490" y="390" as="sourcePoint" />
            <mxPoint x="470" y="380" as="targetPoint" />
          </mxGeometry>
        </mxCell>
        <mxCell id="oATOaoJ81ZTIN3MY-sV3-3" value="$$d$$" style="text;html=1;strokeColor=none;fillColor=none;align=center;verticalAlign=middle;whiteSpace=wrap;rounded=0;fontStyle=1;fontSize=15;" parent="1" vertex="1">
          <mxGeometry x="520" y="360" width="20" height="20" as="geometry" />
        </mxCell>
        <mxCell id="oATOaoJ81ZTIN3MY-sV3-4" value="" style="endArrow=classic;html=1;rounded=0;strokeWidth=2;entryX=0;entryY=0.75;entryDx=0;entryDy=0;exitX=1;exitY=0.75;exitDx=0;exitDy=0;" parent="1" source="oATOaoJ81ZTIN3MY-sV3-25" target="oATOaoJ81ZTIN3MY-sV3-1" edge="1">
          <mxGeometry width="50" height="50" relative="1" as="geometry">
            <mxPoint x="490" y="450" as="sourcePoint" />
            <mxPoint x="580" y="400" as="targetPoint" />
          </mxGeometry>
        </mxCell>
        <mxCell id="oATOaoJ81ZTIN3MY-sV3-5" value="$$q$$" style="text;html=1;strokeColor=none;fillColor=none;align=center;verticalAlign=middle;whiteSpace=wrap;rounded=0;fontStyle=1;fontSize=15;" parent="1" vertex="1">
          <mxGeometry x="520" y="420" width="20" height="20" as="geometry" />
        </mxCell>
        <mxCell id="oATOaoJ81ZTIN3MY-sV3-6" value="inverse Clarke transform" style="rounded=0;whiteSpace=wrap;html=1;fillColor=#1ba1e2;strokeColor=#000000;strokeWidth=2;fontColor=#ffffff;" parent="1" vertex="1">
          <mxGeometry x="730" y="360" width="100" height="120" as="geometry" />
        </mxCell>
        <mxCell id="oATOaoJ81ZTIN3MY-sV3-7" value="" style="endArrow=classic;html=1;rounded=0;strokeWidth=2;entryX=0;entryY=0.25;entryDx=0;entryDy=0;exitX=1;exitY=0.25;exitDx=0;exitDy=0;" parent="1" source="oATOaoJ81ZTIN3MY-sV3-1" target="oATOaoJ81ZTIN3MY-sV3-6" edge="1">
          <mxGeometry width="50" height="50" relative="1" as="geometry">
            <mxPoint x="500" y="400" as="sourcePoint" />
            <mxPoint x="580" y="400" as="targetPoint" />
          </mxGeometry>
        </mxCell>
        <mxCell id="oATOaoJ81ZTIN3MY-sV3-8" value="$$\alpha$$" style="text;html=1;strokeColor=none;fillColor=none;align=center;verticalAlign=middle;whiteSpace=wrap;rounded=0;fontStyle=1;fontSize=15;" parent="1" vertex="1">
          <mxGeometry x="690" y="360" width="20" height="20" as="geometry" />
        </mxCell>
        <mxCell id="oATOaoJ81ZTIN3MY-sV3-9" value="" style="endArrow=classic;html=1;rounded=0;strokeWidth=2;entryX=0;entryY=0.75;entryDx=0;entryDy=0;exitX=1;exitY=0.75;exitDx=0;exitDy=0;" parent="1" source="oATOaoJ81ZTIN3MY-sV3-1" target="oATOaoJ81ZTIN3MY-sV3-6" edge="1">
          <mxGeometry width="50" height="50" relative="1" as="geometry">
            <mxPoint x="680" y="400" as="sourcePoint" />
            <mxPoint x="740" y="400" as="targetPoint" />
          </mxGeometry>
        </mxCell>
        <mxCell id="oATOaoJ81ZTIN3MY-sV3-10" value="$$\beta$$" style="text;html=1;strokeColor=none;fillColor=none;align=center;verticalAlign=middle;whiteSpace=wrap;rounded=0;fontStyle=1;fontSize=15;" parent="1" vertex="1">
          <mxGeometry x="690" y="420" width="20" height="20" as="geometry" />
        </mxCell>
        <mxCell id="oATOaoJ81ZTIN3MY-sV3-11" value="" style="endArrow=classic;html=1;rounded=0;strokeWidth=2;entryX=0.5;entryY=1;entryDx=0;entryDy=0;" parent="1" target="oATOaoJ81ZTIN3MY-sV3-1" edge="1">
          <mxGeometry width="50" height="50" relative="1" as="geometry">
            <mxPoint x="620" y="520" as="sourcePoint" />
            <mxPoint x="580" y="460" as="targetPoint" />
          </mxGeometry>
        </mxCell>
        <mxCell id="oATOaoJ81ZTIN3MY-sV3-12" value="pwm generation" style="rounded=0;whiteSpace=wrap;html=1;fillColor=#0050ef;strokeColor=#000000;strokeWidth=2;fontColor=#ffffff;" parent="1" vertex="1">
          <mxGeometry x="880" y="360" width="100" height="120" as="geometry" />
        </mxCell>
        <mxCell id="oATOaoJ81ZTIN3MY-sV3-13" value="" style="endArrow=classic;html=1;rounded=0;strokeWidth=2;entryX=0;entryY=0.25;entryDx=0;entryDy=0;exitX=1;exitY=0.25;exitDx=0;exitDy=0;" parent="1" source="oATOaoJ81ZTIN3MY-sV3-6" target="oATOaoJ81ZTIN3MY-sV3-12" edge="1">
          <mxGeometry width="50" height="50" relative="1" as="geometry">
            <mxPoint x="680" y="400" as="sourcePoint" />
            <mxPoint x="740" y="400" as="targetPoint" />
          </mxGeometry>
        </mxCell>
        <mxCell id="oATOaoJ81ZTIN3MY-sV3-14" value="$$a$$" style="text;html=1;strokeColor=none;fillColor=none;align=center;verticalAlign=middle;whiteSpace=wrap;rounded=0;fontStyle=1;fontSize=15;" parent="1" vertex="1">
          <mxGeometry x="840" y="360" width="20" height="20" as="geometry" />
        </mxCell>
        <mxCell id="oATOaoJ81ZTIN3MY-sV3-15" value="" style="endArrow=classic;html=1;rounded=0;strokeWidth=2;entryX=0;entryY=0.5;entryDx=0;entryDy=0;exitX=1;exitY=0.5;exitDx=0;exitDy=0;" parent="1" source="oATOaoJ81ZTIN3MY-sV3-6" target="oATOaoJ81ZTIN3MY-sV3-12" edge="1">
          <mxGeometry width="50" height="50" relative="1" as="geometry">
            <mxPoint x="840" y="400" as="sourcePoint" />
            <mxPoint x="890" y="400" as="targetPoint" />
          </mxGeometry>
        </mxCell>
        <mxCell id="oATOaoJ81ZTIN3MY-sV3-16" value="$$b$$" style="text;html=1;strokeColor=none;fillColor=none;align=center;verticalAlign=middle;whiteSpace=wrap;rounded=0;fontStyle=1;fontSize=15;" parent="1" vertex="1">
          <mxGeometry x="840" y="400" width="20" height="20" as="geometry" />
        </mxCell>
        <mxCell id="oATOaoJ81ZTIN3MY-sV3-17" value="$$c$$" style="text;html=1;strokeColor=none;fillColor=none;align=center;verticalAlign=middle;whiteSpace=wrap;rounded=0;fontStyle=1;fontSize=15;" parent="1" vertex="1">
          <mxGeometry x="840" y="430" width="20" height="20" as="geometry" />
        </mxCell>
        <mxCell id="oATOaoJ81ZTIN3MY-sV3-18" value="" style="endArrow=classic;html=1;rounded=0;strokeWidth=2;entryX=0;entryY=0.75;entryDx=0;entryDy=0;exitX=1;exitY=0.75;exitDx=0;exitDy=0;" parent="1" source="oATOaoJ81ZTIN3MY-sV3-6" target="oATOaoJ81ZTIN3MY-sV3-12" edge="1">
          <mxGeometry width="50" height="50" relative="1" as="geometry">
            <mxPoint x="840" y="430" as="sourcePoint" />
            <mxPoint x="890" y="430" as="targetPoint" />
          </mxGeometry>
        </mxCell>
        <mxCell id="oATOaoJ81ZTIN3MY-sV3-19" value="motor" style="ellipse;whiteSpace=wrap;html=1;aspect=fixed;strokeColor=#3700CC;strokeWidth=2;fontSize=15;fillColor=#6a00ff;fontColor=#ffffff;" parent="1" vertex="1">
          <mxGeometry x="1030" y="390" width="60" height="60" as="geometry" />
        </mxCell>
        <mxCell id="oATOaoJ81ZTIN3MY-sV3-21" value="" style="endArrow=classic;html=1;rounded=0;strokeWidth=2;fontSize=15;entryX=0;entryY=1;entryDx=0;entryDy=0;exitX=1;exitY=0.75;exitDx=0;exitDy=0;" parent="1" source="oATOaoJ81ZTIN3MY-sV3-12" target="oATOaoJ81ZTIN3MY-sV3-19" edge="1">
          <mxGeometry width="50" height="50" relative="1" as="geometry">
            <mxPoint x="990" y="540" as="sourcePoint" />
            <mxPoint x="1040" y="490" as="targetPoint" />
            <Array as="points">
              <mxPoint x="1020" y="450" />
            </Array>
          </mxGeometry>
        </mxCell>
        <mxCell id="oATOaoJ81ZTIN3MY-sV3-22" value="" style="endArrow=classic;html=1;rounded=0;strokeWidth=2;fontSize=15;entryX=0;entryY=0.5;entryDx=0;entryDy=0;exitX=1;exitY=0.5;exitDx=0;exitDy=0;" parent="1" source="oATOaoJ81ZTIN3MY-sV3-12" target="oATOaoJ81ZTIN3MY-sV3-19" edge="1">
          <mxGeometry width="50" height="50" relative="1" as="geometry">
            <mxPoint x="990.0000000000002" y="459.9999999999998" as="sourcePoint" />
            <mxPoint x="1051.715728752538" y="458.2842712474618" as="targetPoint" />
          </mxGeometry>
        </mxCell>
        <mxCell id="oATOaoJ81ZTIN3MY-sV3-23" value="" style="endArrow=classic;html=1;rounded=0;strokeWidth=2;fontSize=15;entryX=0;entryY=0;entryDx=0;entryDy=0;exitX=1;exitY=0.25;exitDx=0;exitDy=0;" parent="1" source="oATOaoJ81ZTIN3MY-sV3-12" target="oATOaoJ81ZTIN3MY-sV3-19" edge="1">
          <mxGeometry width="50" height="50" relative="1" as="geometry">
            <mxPoint x="990.0000000000002" y="429.9999999999999" as="sourcePoint" />
            <mxPoint x="1039.9999999999998" y="430" as="targetPoint" />
            <Array as="points">
              <mxPoint x="1020" y="390" />
            </Array>
          </mxGeometry>
        </mxCell>
        <mxCell id="oATOaoJ81ZTIN3MY-sV3-24" value="PI controller" style="rounded=0;whiteSpace=wrap;html=1;fillColor=#f8cecc;strokeColor=#000000;strokeWidth=2;" parent="1" vertex="1">
          <mxGeometry x="280" y="400" width="90" height="40" as="geometry" />
        </mxCell>
        <mxCell id="oATOaoJ81ZTIN3MY-sV3-25" value="torque compute" style="rounded=0;whiteSpace=wrap;html=1;fillColor=#fff2cc;strokeColor=#000000;strokeWidth=2;" parent="1" vertex="1">
          <mxGeometry x="410" y="360" width="90" height="120" as="geometry" />
        </mxCell>
        <mxCell id="oATOaoJ81ZTIN3MY-sV3-27" value="" style="endArrow=classic;html=1;rounded=0;strokeWidth=2;entryX=0;entryY=0.5;entryDx=0;entryDy=0;exitX=1;exitY=0.5;exitDx=0;exitDy=0;" parent="1" source="oATOaoJ81ZTIN3MY-sV3-24" target="oATOaoJ81ZTIN3MY-sV3-25" edge="1">
          <mxGeometry width="50" height="50" relative="1" as="geometry">
            <mxPoint x="510" y="400.0000000000001" as="sourcePoint" />
            <mxPoint x="580" y="400.0000000000001" as="targetPoint" />
          </mxGeometry>
        </mxCell>
        <mxCell id="oATOaoJ81ZTIN3MY-sV3-28" value="" style="endArrow=classic;html=1;rounded=0;strokeWidth=2;entryX=0.5;entryY=1;entryDx=0;entryDy=0;exitX=0.5;exitY=1;exitDx=0;exitDy=0;" parent="1" source="oATOaoJ81ZTIN3MY-sV3-19" target="oATOaoJ81ZTIN3MY-sV3-25" edge="1">
          <mxGeometry width="50" height="50" relative="1" as="geometry">
            <mxPoint x="680" y="560" as="sourcePoint" />
            <mxPoint x="630" y="490" as="targetPoint" />
            <Array as="points">
              <mxPoint x="1060" y="520" />
              <mxPoint x="455" y="520" />
            </Array>
          </mxGeometry>
        </mxCell>
        <mxCell id="oATOaoJ81ZTIN3MY-sV3-29" value="rotor angle $$\theta$$" style="text;html=1;strokeColor=none;fillColor=none;align=center;verticalAlign=middle;whiteSpace=wrap;rounded=0;fontStyle=1;fontSize=15;" parent="1" vertex="1">
          <mxGeometry x="720" y="520" width="120" height="20" as="geometry" />
        </mxCell>
        <mxCell id="oATOaoJ81ZTIN3MY-sV3-31" value="" style="ellipse;whiteSpace=wrap;html=1;aspect=fixed;strokeColor=#000000;strokeWidth=2;fontSize=26;fillColor=#f8cecc;" parent="1" vertex="1">
          <mxGeometry x="210" y="400" width="40" height="40" as="geometry" />
        </mxCell>
        <mxCell id="oATOaoJ81ZTIN3MY-sV3-32" value="" style="endArrow=classic;html=1;rounded=0;strokeWidth=2;entryX=0;entryY=0.5;entryDx=0;entryDy=0;exitX=1;exitY=0.5;exitDx=0;exitDy=0;" parent="1" source="oATOaoJ81ZTIN3MY-sV3-31" target="oATOaoJ81ZTIN3MY-sV3-24" edge="1">
          <mxGeometry width="50" height="50" relative="1" as="geometry">
            <mxPoint x="360" y="430" as="sourcePoint" />
            <mxPoint x="420" y="430" as="targetPoint" />
          </mxGeometry>
        </mxCell>
        <mxCell id="oATOaoJ81ZTIN3MY-sV3-33" value="" style="endArrow=classic;html=1;rounded=0;strokeWidth=2;entryX=0;entryY=0.5;entryDx=0;entryDy=0;" parent="1" target="oATOaoJ81ZTIN3MY-sV3-31" edge="1">
          <mxGeometry width="50" height="50" relative="1" as="geometry">
            <mxPoint x="170" y="420" as="sourcePoint" />
            <mxPoint x="250" y="430" as="targetPoint" />
          </mxGeometry>
        </mxCell>
        <mxCell id="oATOaoJ81ZTIN3MY-sV3-34" value="required torque" style="text;html=1;strokeColor=none;fillColor=none;align=center;verticalAlign=middle;whiteSpace=wrap;rounded=0;fontStyle=1;fontSize=15;" parent="1" vertex="1">
          <mxGeometry x="90" y="390" width="120" height="20" as="geometry" />
        </mxCell>
        <mxCell id="oATOaoJ81ZTIN3MY-sV3-35" value="-" style="text;html=1;strokeColor=none;fillColor=none;align=center;verticalAlign=middle;whiteSpace=wrap;rounded=0;fontStyle=1;fontSize=15;" parent="1" vertex="1">
          <mxGeometry x="200" y="440" width="20" height="20" as="geometry" />
        </mxCell>
        <mxCell id="oATOaoJ81ZTIN3MY-sV3-36" value="" style="endArrow=classic;html=1;rounded=0;strokeWidth=2;entryX=0.5;entryY=1;entryDx=0;entryDy=0;exitX=1;exitY=1;exitDx=0;exitDy=0;" parent="1" source="oATOaoJ81ZTIN3MY-sV3-19" target="oATOaoJ81ZTIN3MY-sV3-31" edge="1">
          <mxGeometry width="50" height="50" relative="1" as="geometry">
            <mxPoint x="1070" y="460" as="sourcePoint" />
            <mxPoint x="465" y="490" as="targetPoint" />
            <Array as="points">
              <mxPoint x="1080" y="560" />
              <mxPoint x="630" y="560" />
              <mxPoint x="230" y="560" />
            </Array>
          </mxGeometry>
        </mxCell>
        <mxCell id="oATOaoJ81ZTIN3MY-sV3-37" value="motor current" style="text;html=1;strokeColor=none;fillColor=none;align=center;verticalAlign=middle;whiteSpace=wrap;rounded=0;fontStyle=1;fontSize=15;" parent="1" vertex="1">
          <mxGeometry x="240" y="530" width="120" height="20" as="geometry" />
        </mxCell>
        <mxCell id="oATOaoJ81ZTIN3MY-sV3-38" value="$$u$$" style="text;html=1;strokeColor=none;fillColor=none;align=center;verticalAlign=middle;whiteSpace=wrap;rounded=0;fontStyle=1;fontSize=15;" parent="1" vertex="1">
          <mxGeometry x="370" y="390" width="20" height="20" as="geometry" />
        </mxCell>
        <mxCell id="WSnaFDKrjqvlqzwPlAEk-2" value="$$e$$" style="text;html=1;strokeColor=none;fillColor=none;align=center;verticalAlign=middle;whiteSpace=wrap;rounded=0;fontStyle=1;fontSize=15;" parent="1" vertex="1">
          <mxGeometry x="250" y="390" width="20" height="20" as="geometry" />
        </mxCell>
      </root>
    </mxGraphModel>
  </diagram>
  <diagram id="NP107GAuFKP-CST0kDd0" name="outer_loop">
    <mxGraphModel dx="865" dy="674" grid="1" gridSize="10" guides="1" tooltips="1" connect="1" arrows="1" fold="1" page="1" pageScale="1" pageWidth="3300" pageHeight="4681" math="1" shadow="0">
      <root>
        <mxCell id="0" />
        <mxCell id="1" parent="0" />
        <mxCell id="m0ANud0gUjB0hbADawrZ-1" value="motor &lt;br&gt;(with&amp;nbsp;inner loop control)" style="rounded=0;whiteSpace=wrap;html=1;fillColor=#1ba1e2;strokeColor=#000000;strokeWidth=2;fontColor=#ffffff;" parent="1" vertex="1">
          <mxGeometry x="500" y="220" width="160" height="90" as="geometry" />
        </mxCell>
        <mxCell id="4ElKPbPakX3k8RvCfUVs-1" value="$$u = -Kx + K_ie_{int}$$" style="rounded=0;whiteSpace=wrap;html=1;fillColor=#f8cecc;strokeColor=#000000;strokeWidth=2;" parent="1" vertex="1">
          <mxGeometry x="300" y="230" width="150" height="70" as="geometry" />
        </mxCell>
        <mxCell id="Nz-f72ZRYB-7f3seVuZm-1" value="" style="endArrow=classic;html=1;rounded=0;strokeWidth=2;entryX=0;entryY=0.5;entryDx=0;entryDy=0;exitX=1;exitY=0.5;exitDx=0;exitDy=0;" parent="1" source="4ElKPbPakX3k8RvCfUVs-1" target="m0ANud0gUjB0hbADawrZ-1" edge="1">
          <mxGeometry width="50" height="50" relative="1" as="geometry">
            <mxPoint x="350" y="419.9999999999999" as="sourcePoint" />
            <mxPoint x="410" y="419.9999999999999" as="targetPoint" />
          </mxGeometry>
        </mxCell>
        <mxCell id="Nz-f72ZRYB-7f3seVuZm-2" value="" style="endArrow=classic;html=1;rounded=0;strokeWidth=2;entryX=0;entryY=0.75;entryDx=0;entryDy=0;exitX=1;exitY=0.5;exitDx=0;exitDy=0;" parent="1" source="m0ANud0gUjB0hbADawrZ-1" target="4ElKPbPakX3k8RvCfUVs-1" edge="1">
          <mxGeometry width="50" height="50" relative="1" as="geometry">
            <mxPoint x="460" y="275" as="sourcePoint" />
            <mxPoint x="510" y="275" as="targetPoint" />
            <Array as="points">
              <mxPoint x="710" y="265" />
              <mxPoint x="710" y="330" />
              <mxPoint x="270" y="330" />
              <mxPoint x="270" y="283" />
            </Array>
          </mxGeometry>
        </mxCell>
        <mxCell id="BxrlBD_h-z_Bd0tQLXRe-1" value="$$u$$" style="text;html=1;strokeColor=none;fillColor=none;align=center;verticalAlign=middle;whiteSpace=wrap;rounded=0;fontStyle=1;fontSize=15;" parent="1" vertex="1">
          <mxGeometry x="460" y="240" width="20" height="20" as="geometry" />
        </mxCell>
        <mxCell id="BxrlBD_h-z_Bd0tQLXRe-2" value="$$x$$" style="text;html=1;strokeColor=none;fillColor=none;align=center;verticalAlign=middle;whiteSpace=wrap;rounded=0;fontStyle=1;fontSize=15;" parent="1" vertex="1">
          <mxGeometry x="710" y="240" width="20" height="20" as="geometry" />
        </mxCell>
        <mxCell id="BxrlBD_h-z_Bd0tQLXRe-3" value="$$\int$$" style="rounded=0;whiteSpace=wrap;html=1;fillColor=#f8cecc;strokeColor=#000000;strokeWidth=2;" parent="1" vertex="1">
          <mxGeometry x="190" y="225" width="40" height="80" as="geometry" />
        </mxCell>
        <mxCell id="BxrlBD_h-z_Bd0tQLXRe-4" value="" style="endArrow=classic;html=1;rounded=0;strokeWidth=2;exitX=1;exitY=0.5;exitDx=0;exitDy=0;" parent="1" source="BxrlBD_h-z_Bd0tQLXRe-3" edge="1">
          <mxGeometry width="50" height="50" relative="1" as="geometry">
            <mxPoint x="460" y="275" as="sourcePoint" />
            <mxPoint x="300" y="265" as="targetPoint" />
          </mxGeometry>
        </mxCell>
        <mxCell id="BxrlBD_h-z_Bd0tQLXRe-5" value="$$e_{int}$$" style="text;html=1;strokeColor=none;fillColor=none;align=center;verticalAlign=middle;whiteSpace=wrap;rounded=0;fontStyle=1;fontSize=15;" parent="1" vertex="1">
          <mxGeometry x="250" y="230" width="20" height="20" as="geometry" />
        </mxCell>
        <mxCell id="3nVyKCNWjzzSALE2g8mN-1" value="LQR controller" style="text;html=1;strokeColor=none;fillColor=none;align=center;verticalAlign=middle;whiteSpace=wrap;rounded=0;fontStyle=1;fontSize=15;" parent="1" vertex="1">
          <mxGeometry x="315" y="180" width="120" height="20" as="geometry" />
        </mxCell>
        <mxCell id="3nVyKCNWjzzSALE2g8mN-2" value="motor" style="text;html=1;strokeColor=none;fillColor=none;align=center;verticalAlign=middle;whiteSpace=wrap;rounded=0;fontStyle=1;fontSize=15;" parent="1" vertex="1">
          <mxGeometry x="520" y="180" width="120" height="20" as="geometry" />
        </mxCell>
        <mxCell id="3nVyKCNWjzzSALE2g8mN-3" value="" style="endArrow=classic;html=1;rounded=0;strokeWidth=2;exitX=1;exitY=0.5;exitDx=0;exitDy=0;" parent="1" source="m0ANud0gUjB0hbADawrZ-1" edge="1">
          <mxGeometry width="50" height="50" relative="1" as="geometry">
            <mxPoint x="460" y="275" as="sourcePoint" />
            <mxPoint x="770" y="265" as="targetPoint" />
          </mxGeometry>
        </mxCell>
        <mxCell id="b-R3QIgpzJWm7Ud2JyOc-1" value="" style="ellipse;whiteSpace=wrap;html=1;aspect=fixed;strokeColor=#000000;strokeWidth=2;fontSize=26;fillColor=#f8cecc;" parent="1" vertex="1">
          <mxGeometry x="120" y="245" width="40" height="40" as="geometry" />
        </mxCell>
        <mxCell id="b-R3QIgpzJWm7Ud2JyOc-2" value="" style="endArrow=classic;html=1;rounded=0;strokeWidth=2;entryX=0;entryY=0.5;entryDx=0;entryDy=0;exitX=1;exitY=0.5;exitDx=0;exitDy=0;" parent="1" source="b-R3QIgpzJWm7Ud2JyOc-1" target="BxrlBD_h-z_Bd0tQLXRe-3" edge="1">
          <mxGeometry width="50" height="50" relative="1" as="geometry">
            <mxPoint x="240" y="275" as="sourcePoint" />
            <mxPoint x="310" y="275" as="targetPoint" />
          </mxGeometry>
        </mxCell>
        <mxCell id="b-R3QIgpzJWm7Ud2JyOc-4" value="integral action" style="text;html=1;strokeColor=none;fillColor=none;align=center;verticalAlign=middle;whiteSpace=wrap;rounded=0;fontStyle=1;fontSize=15;" parent="1" vertex="1">
          <mxGeometry x="140" y="180" width="120" height="20" as="geometry" />
        </mxCell>
        <mxCell id="b-R3QIgpzJWm7Ud2JyOc-6" value="" style="endArrow=classic;html=1;rounded=0;strokeWidth=2;entryX=0.5;entryY=1;entryDx=0;entryDy=0;" parent="1" target="b-R3QIgpzJWm7Ud2JyOc-1" edge="1">
          <mxGeometry width="50" height="50" relative="1" as="geometry">
            <mxPoint x="270" y="330" as="sourcePoint" />
            <mxPoint x="310" y="275" as="targetPoint" />
            <Array as="points">
              <mxPoint x="140" y="330" />
            </Array>
          </mxGeometry>
        </mxCell>
        <mxCell id="b-R3QIgpzJWm7Ud2JyOc-7" value="" style="endArrow=classic;html=1;rounded=0;strokeWidth=2;entryX=0;entryY=0.5;entryDx=0;entryDy=0;" parent="1" target="b-R3QIgpzJWm7Ud2JyOc-1" edge="1">
          <mxGeometry width="50" height="50" relative="1" as="geometry">
            <mxPoint x="70" y="265" as="sourcePoint" />
            <mxPoint x="60" y="230" as="targetPoint" />
          </mxGeometry>
        </mxCell>
        <mxCell id="b-R3QIgpzJWm7Ud2JyOc-8" value="$$x_r$$" style="text;html=1;strokeColor=none;fillColor=none;align=center;verticalAlign=middle;whiteSpace=wrap;rounded=0;fontStyle=1;fontSize=15;" parent="1" vertex="1">
          <mxGeometry x="60" y="240" width="20" height="20" as="geometry" />
        </mxCell>
        <mxCell id="b-R3QIgpzJWm7Ud2JyOc-9" value="required state" style="text;html=1;strokeColor=none;fillColor=none;align=center;verticalAlign=middle;whiteSpace=wrap;rounded=0;fontStyle=1;fontSize=15;" parent="1" vertex="1">
          <mxGeometry y="180" width="120" height="20" as="geometry" />
        </mxCell>
        <mxCell id="2P8DyfWYtBqlTFfM-XCR-1" value="-" style="text;html=1;strokeColor=none;fillColor=none;align=center;verticalAlign=middle;whiteSpace=wrap;rounded=0;fontStyle=1;fontSize=15;" parent="1" vertex="1">
          <mxGeometry x="110" y="285" width="20" height="20" as="geometry" />
        </mxCell>
        <mxCell id="9w0E5Kw-hxL8BXP6YdQ2-1" value="$$x$$" style="text;html=1;strokeColor=none;fillColor=none;align=center;verticalAlign=middle;whiteSpace=wrap;rounded=0;fontStyle=1;fontSize=15;" parent="1" vertex="1">
          <mxGeometry x="240" y="300" width="20" height="20" as="geometry" />
        </mxCell>
        <mxCell id="9w0E5Kw-hxL8BXP6YdQ2-2" value="$$e$$" style="text;html=1;strokeColor=none;fillColor=none;align=center;verticalAlign=middle;whiteSpace=wrap;rounded=0;fontStyle=1;fontSize=15;" parent="1" vertex="1">
          <mxGeometry x="160" y="230" width="20" height="20" as="geometry" />
        </mxCell>
      </root>
    </mxGraphModel>
  </diagram>
  <diagram id="ig8WkzcNlfUXxoO8tMb9" name="lqr">
    <mxGraphModel dx="618" dy="481" grid="1" gridSize="10" guides="1" tooltips="1" connect="1" arrows="1" fold="1" page="1" pageScale="1" pageWidth="3300" pageHeight="4681" math="1" shadow="0">
      <root>
        <mxCell id="0" />
        <mxCell id="1" parent="0" />
        <mxCell id="kTp0ixxDIyROOf1ZNulH-1" value="$$u = -Kx + K_ie_{int}$$" style="rounded=0;whiteSpace=wrap;html=1;fillColor=#e1d5e7;strokeColor=#9673a6;strokeWidth=2;" parent="1" vertex="1">
          <mxGeometry x="580" y="330" width="150" height="70" as="geometry" />
        </mxCell>
        <mxCell id="-qDZR84TnMrnPSYbvkyu-2" value="u = \( - \begin{pmatrix}&lt;br&gt;k_0 &amp;amp; k_1&lt;br&gt;\end{pmatrix} &lt;br&gt;\begin{pmatrix}&lt;br style=&quot;border-color: var(--border-color);&quot;&gt;x_0 \\ x_1&lt;br style=&quot;border-color: var(--border-color);&quot;&gt;\end{pmatrix} + K_i e_{int} \)" style="text;html=1;strokeColor=none;fillColor=none;align=center;verticalAlign=middle;whiteSpace=wrap;rounded=0;" parent="1" vertex="1">
          <mxGeometry x="550" y="210" width="220" height="40" as="geometry" />
        </mxCell>
        <mxCell id="lwnjR5YpNOnFF04ge_Jp-1" value="LQR controller" style="text;html=1;strokeColor=none;fillColor=none;align=center;verticalAlign=middle;whiteSpace=wrap;rounded=0;fontStyle=1;fontSize=15;" parent="1" vertex="1">
          <mxGeometry x="595" y="140" width="120" height="20" as="geometry" />
        </mxCell>
        <mxCell id="s8aKf2uSJYE9T0lSzVkU-1" value="" style="endArrow=classic;html=1;rounded=0;strokeWidth=2;entryX=0;entryY=0.25;entryDx=0;entryDy=0;" parent="1" target="kTp0ixxDIyROOf1ZNulH-1" edge="1">
          <mxGeometry width="50" height="50" relative="1" as="geometry">
            <mxPoint x="530" y="348" as="sourcePoint" />
            <mxPoint x="690" y="400" as="targetPoint" />
          </mxGeometry>
        </mxCell>
        <mxCell id="lJIqPCyUp0jRqJK0qNDl-1" value="$$x$$" style="text;html=1;strokeColor=none;fillColor=none;align=center;verticalAlign=middle;whiteSpace=wrap;rounded=0;fontStyle=1;fontSize=15;" parent="1" vertex="1">
          <mxGeometry x="520" y="320" width="20" height="20" as="geometry" />
        </mxCell>
        <mxCell id="avGfbKjOQpftnRpNNvu2-1" value="" style="endArrow=classic;html=1;rounded=0;strokeWidth=2;exitX=1;exitY=0.5;exitDx=0;exitDy=0;entryX=0;entryY=0.5;entryDx=0;entryDy=0;" parent="1" source="kTp0ixxDIyROOf1ZNulH-1" target="XepydL3lwaqerBywXfQd-21" edge="1">
          <mxGeometry width="50" height="50" relative="1" as="geometry">
            <mxPoint x="730" y="245" as="sourcePoint" />
            <mxPoint x="780" y="365" as="targetPoint" />
          </mxGeometry>
        </mxCell>
        <mxCell id="avGfbKjOQpftnRpNNvu2-2" value="$$u$$" style="text;html=1;strokeColor=none;fillColor=none;align=center;verticalAlign=middle;whiteSpace=wrap;rounded=0;fontStyle=1;fontSize=15;" parent="1" vertex="1">
          <mxGeometry x="750" y="330" width="20" height="20" as="geometry" />
        </mxCell>
        <mxCell id="avGfbKjOQpftnRpNNvu2-4" value="" style="endArrow=classic;html=1;rounded=0;strokeWidth=2;entryX=0;entryY=0.5;entryDx=0;entryDy=0;exitX=1;exitY=0.5;exitDx=0;exitDy=0;" parent="1" source="kNz7OTv42V5_Gx-poDlK-1" target="kTp0ixxDIyROOf1ZNulH-1" edge="1">
          <mxGeometry width="50" height="50" relative="1" as="geometry">
            <mxPoint x="480" y="383" as="sourcePoint" />
            <mxPoint x="540" y="358" as="targetPoint" />
          </mxGeometry>
        </mxCell>
        <mxCell id="avGfbKjOQpftnRpNNvu2-5" value="$$e_{int}$$" style="text;html=1;strokeColor=none;fillColor=none;align=center;verticalAlign=middle;whiteSpace=wrap;rounded=0;fontStyle=1;fontSize=15;" parent="1" vertex="1">
          <mxGeometry x="520" y="370" width="20" height="20" as="geometry" />
        </mxCell>
        <mxCell id="avGfbKjOQpftnRpNNvu2-6" value="position [rad]" style="text;html=1;strokeColor=none;fillColor=none;align=center;verticalAlign=middle;whiteSpace=wrap;rounded=0;fontStyle=1;fontSize=12;" parent="1" vertex="1">
          <mxGeometry x="580" y="170" width="120" height="20" as="geometry" />
        </mxCell>
        <mxCell id="avGfbKjOQpftnRpNNvu2-7" value="" style="endArrow=classic;html=1;rounded=0;strokeWidth=1;fillColor=#f8cecc;strokeColor=#FF6666;exitX=0.5;exitY=1;exitDx=0;exitDy=0;entryX=0.545;entryY=0.25;entryDx=0;entryDy=0;entryPerimeter=0;" parent="1" source="avGfbKjOQpftnRpNNvu2-6" target="-qDZR84TnMrnPSYbvkyu-2" edge="1">
          <mxGeometry width="50" height="50" relative="1" as="geometry">
            <mxPoint x="570" y="190" as="sourcePoint" />
            <mxPoint x="700" y="200" as="targetPoint" />
          </mxGeometry>
        </mxCell>
        <mxCell id="avGfbKjOQpftnRpNNvu2-8" value="velocity [rad/s]" style="text;html=1;strokeColor=none;fillColor=none;align=center;verticalAlign=middle;whiteSpace=wrap;rounded=0;fontStyle=1;fontSize=12;" parent="1" vertex="1">
          <mxGeometry x="680" y="170" width="120" height="20" as="geometry" />
        </mxCell>
        <mxCell id="avGfbKjOQpftnRpNNvu2-9" value="" style="endArrow=classic;html=1;rounded=0;strokeWidth=1;fillColor=#f8cecc;strokeColor=#FF6666;exitX=0.5;exitY=1;exitDx=0;exitDy=0;entryX=0.591;entryY=0.75;entryDx=0;entryDy=0;entryPerimeter=0;" parent="1" source="avGfbKjOQpftnRpNNvu2-8" target="-qDZR84TnMrnPSYbvkyu-2" edge="1">
          <mxGeometry width="50" height="50" relative="1" as="geometry">
            <mxPoint x="650" y="200" as="sourcePoint" />
            <mxPoint x="680" y="230" as="targetPoint" />
          </mxGeometry>
        </mxCell>
        <mxCell id="avGfbKjOQpftnRpNNvu2-10" value="integral action" style="text;html=1;strokeColor=none;fillColor=none;align=center;verticalAlign=middle;whiteSpace=wrap;rounded=0;fontStyle=1;fontSize=12;" parent="1" vertex="1">
          <mxGeometry x="780" y="170" width="120" height="20" as="geometry" />
        </mxCell>
        <mxCell id="avGfbKjOQpftnRpNNvu2-11" value="" style="endArrow=classic;html=1;rounded=0;strokeWidth=1;fillColor=#f8cecc;strokeColor=#FF6666;exitX=0.5;exitY=1;exitDx=0;exitDy=0;entryX=0.864;entryY=0.5;entryDx=0;entryDy=0;entryPerimeter=0;" parent="1" source="avGfbKjOQpftnRpNNvu2-10" target="-qDZR84TnMrnPSYbvkyu-2" edge="1">
          <mxGeometry width="50" height="50" relative="1" as="geometry">
            <mxPoint x="750" y="200" as="sourcePoint" />
            <mxPoint x="690" y="250" as="targetPoint" />
          </mxGeometry>
        </mxCell>
        <mxCell id="avGfbKjOQpftnRpNNvu2-12" value="state feedback gains" style="text;html=1;strokeColor=none;fillColor=none;align=center;verticalAlign=middle;whiteSpace=wrap;rounded=0;fontStyle=1;fontSize=12;" parent="1" vertex="1">
          <mxGeometry x="560" y="270" width="130" height="20" as="geometry" />
        </mxCell>
        <mxCell id="avGfbKjOQpftnRpNNvu2-13" value="" style="endArrow=classic;html=1;rounded=0;strokeWidth=1;fillColor=#f8cecc;strokeColor=#FF6666;exitX=0.5;exitY=0;exitDx=0;exitDy=0;" parent="1" source="avGfbKjOQpftnRpNNvu2-12" edge="1">
          <mxGeometry width="50" height="50" relative="1" as="geometry">
            <mxPoint x="650" y="200" as="sourcePoint" />
            <mxPoint x="630" y="240" as="targetPoint" />
          </mxGeometry>
        </mxCell>
        <mxCell id="avGfbKjOQpftnRpNNvu2-14" value="integral gain" style="text;html=1;strokeColor=none;fillColor=none;align=center;verticalAlign=middle;whiteSpace=wrap;rounded=0;fontStyle=1;fontSize=12;" parent="1" vertex="1">
          <mxGeometry x="675" y="270" width="130" height="20" as="geometry" />
        </mxCell>
        <mxCell id="avGfbKjOQpftnRpNNvu2-15" value="" style="endArrow=classic;html=1;rounded=0;strokeWidth=1;fillColor=#f8cecc;strokeColor=#FF6666;exitX=0.5;exitY=0;exitDx=0;exitDy=0;entryX=0.773;entryY=0.75;entryDx=0;entryDy=0;entryPerimeter=0;" parent="1" source="avGfbKjOQpftnRpNNvu2-14" target="-qDZR84TnMrnPSYbvkyu-2" edge="1">
          <mxGeometry width="50" height="50" relative="1" as="geometry">
            <mxPoint x="635" y="280" as="sourcePoint" />
            <mxPoint x="640" y="250" as="targetPoint" />
          </mxGeometry>
        </mxCell>
        <mxCell id="kNz7OTv42V5_Gx-poDlK-1" value="$$\int{e}{dt}$$" style="rounded=0;whiteSpace=wrap;html=1;fillColor=#dae8fc;strokeColor=#6c8ebf;strokeWidth=2;" parent="1" vertex="1">
          <mxGeometry x="410" y="325" width="70" height="80" as="geometry" />
        </mxCell>
        <mxCell id="kNz7OTv42V5_Gx-poDlK-2" style="edgeStyle=orthogonalEdgeStyle;rounded=0;orthogonalLoop=1;jettySize=auto;html=1;exitX=0.5;exitY=1;exitDx=0;exitDy=0;" parent="1" source="avGfbKjOQpftnRpNNvu2-5" target="avGfbKjOQpftnRpNNvu2-5" edge="1">
          <mxGeometry relative="1" as="geometry" />
        </mxCell>
        <mxCell id="5sjL4nM-13YY5lFqkN-K-1" value="" style="ellipse;whiteSpace=wrap;html=1;aspect=fixed;strokeColor=#6c8ebf;strokeWidth=2;fontSize=26;fillColor=#dae8fc;" parent="1" vertex="1">
          <mxGeometry x="350" y="345" width="40" height="40" as="geometry" />
        </mxCell>
        <mxCell id="5sjL4nM-13YY5lFqkN-K-2" value="" style="ellipse;whiteSpace=wrap;html=1;aspect=fixed;strokeColor=#6c8ebf;strokeWidth=2;fontSize=26;fillColor=#dae8fc;" parent="1" vertex="1">
          <mxGeometry x="290" y="345" width="40" height="40" as="geometry" />
        </mxCell>
        <mxCell id="5sjL4nM-13YY5lFqkN-K-3" value="" style="endArrow=classic;html=1;rounded=0;strokeWidth=2;entryX=0;entryY=0;entryDx=0;entryDy=0;" parent="1" target="5sjL4nM-13YY5lFqkN-K-2" edge="1">
          <mxGeometry width="50" height="50" relative="1" as="geometry">
            <mxPoint x="250" y="320" as="sourcePoint" />
            <mxPoint x="540" y="375" as="targetPoint" />
            <Array as="points">
              <mxPoint x="280" y="320" />
            </Array>
          </mxGeometry>
        </mxCell>
        <mxCell id="XepydL3lwaqerBywXfQd-1" value="required position [rad] $$y_r$$" style="text;html=1;strokeColor=none;fillColor=none;align=center;verticalAlign=middle;whiteSpace=wrap;rounded=0;fontStyle=1;fontSize=12;" parent="1" vertex="1">
          <mxGeometry x="100" y="290" width="190" height="65" as="geometry" />
        </mxCell>
        <mxCell id="XepydL3lwaqerBywXfQd-2" value="integral action with anti-windup" style="text;html=1;strokeColor=none;fillColor=none;align=center;verticalAlign=middle;whiteSpace=wrap;rounded=0;fontStyle=1;fontSize=15;" parent="1" vertex="1">
          <mxGeometry x="210" y="140" width="260" height="20" as="geometry" />
        </mxCell>
        <mxCell id="XepydL3lwaqerBywXfQd-8" value="+" style="text;html=1;strokeColor=none;fillColor=none;align=center;verticalAlign=middle;whiteSpace=wrap;rounded=0;fontStyle=1;fontSize=15;" parent="1" vertex="1">
          <mxGeometry x="290" y="325" width="20" height="20" as="geometry" />
        </mxCell>
        <mxCell id="XepydL3lwaqerBywXfQd-9" value="-" style="text;html=1;strokeColor=none;fillColor=none;align=center;verticalAlign=middle;whiteSpace=wrap;rounded=0;fontStyle=1;fontSize=15;" parent="1" vertex="1">
          <mxGeometry x="290" y="385" width="20" height="20" as="geometry" />
        </mxCell>
        <mxCell id="XepydL3lwaqerBywXfQd-10" value="observed position [rad] $$y$$" style="text;html=1;strokeColor=none;fillColor=none;align=center;verticalAlign=middle;whiteSpace=wrap;rounded=0;fontStyle=1;fontSize=12;" parent="1" vertex="1">
          <mxGeometry x="100" y="370" width="190" height="65" as="geometry" />
        </mxCell>
        <mxCell id="XepydL3lwaqerBywXfQd-11" value="" style="endArrow=classic;html=1;rounded=0;strokeWidth=2;entryX=0;entryY=1;entryDx=0;entryDy=0;" parent="1" target="5sjL4nM-13YY5lFqkN-K-2" edge="1">
          <mxGeometry width="50" height="50" relative="1" as="geometry">
            <mxPoint x="250" y="400" as="sourcePoint" />
            <mxPoint x="306" y="361" as="targetPoint" />
            <Array as="points">
              <mxPoint x="280" y="400" />
            </Array>
          </mxGeometry>
        </mxCell>
        <mxCell id="XepydL3lwaqerBywXfQd-12" value="" style="endArrow=classic;html=1;rounded=0;strokeWidth=2;entryX=0;entryY=0.5;entryDx=0;entryDy=0;exitX=1;exitY=0.5;exitDx=0;exitDy=0;" parent="1" source="5sjL4nM-13YY5lFqkN-K-1" target="kNz7OTv42V5_Gx-poDlK-1" edge="1">
          <mxGeometry width="50" height="50" relative="1" as="geometry">
            <mxPoint x="460" y="375" as="sourcePoint" />
            <mxPoint x="540" y="375" as="targetPoint" />
          </mxGeometry>
        </mxCell>
        <mxCell id="XepydL3lwaqerBywXfQd-14" value="" style="endArrow=classic;html=1;rounded=0;strokeWidth=2;entryX=0;entryY=0.5;entryDx=0;entryDy=0;exitX=1;exitY=0.5;exitDx=0;exitDy=0;" parent="1" source="5sjL4nM-13YY5lFqkN-K-2" target="5sjL4nM-13YY5lFqkN-K-1" edge="1">
          <mxGeometry width="50" height="50" relative="1" as="geometry">
            <mxPoint x="400" y="375" as="sourcePoint" />
            <mxPoint x="420" y="375" as="targetPoint" />
          </mxGeometry>
        </mxCell>
        <mxCell id="XepydL3lwaqerBywXfQd-15" value="+" style="text;html=1;strokeColor=none;fillColor=none;align=center;verticalAlign=middle;whiteSpace=wrap;rounded=0;fontStyle=1;fontSize=15;" parent="1" vertex="1">
          <mxGeometry x="330" y="325" width="20" height="20" as="geometry" />
        </mxCell>
        <mxCell id="XepydL3lwaqerBywXfQd-16" value="-" style="text;html=1;strokeColor=none;fillColor=none;align=center;verticalAlign=middle;whiteSpace=wrap;rounded=0;fontStyle=1;fontSize=15;" parent="1" vertex="1">
          <mxGeometry x="340" y="385" width="20" height="20" as="geometry" />
        </mxCell>
        <mxCell id="XepydL3lwaqerBywXfQd-17" value="" style="endArrow=classic;html=1;rounded=0;strokeWidth=1;fillColor=#f8cecc;strokeColor=#FF6666;entryX=1;entryY=0;entryDx=0;entryDy=0;exitX=0.75;exitY=0;exitDx=0;exitDy=0;" parent="1" source="XepydL3lwaqerBywXfQd-18" edge="1" target="XepydL3lwaqerBywXfQd-16">
          <mxGeometry width="50" height="50" relative="1" as="geometry">
            <mxPoint x="300" y="430" as="sourcePoint" />
            <mxPoint x="370" y="340" as="targetPoint" />
          </mxGeometry>
        </mxCell>
        <mxCell id="XepydL3lwaqerBywXfQd-18" value="anti-windup" style="text;html=1;strokeColor=none;fillColor=none;align=center;verticalAlign=middle;whiteSpace=wrap;rounded=0;fontStyle=1;fontSize=12;" parent="1" vertex="1">
          <mxGeometry x="210" y="460" width="120" height="20" as="geometry" />
        </mxCell>
        <mxCell id="XepydL3lwaqerBywXfQd-19" value="integral action" style="text;html=1;strokeColor=none;fillColor=none;align=center;verticalAlign=middle;whiteSpace=wrap;rounded=0;fontStyle=1;fontSize=12;" parent="1" vertex="1">
          <mxGeometry x="385" y="260" width="120" height="20" as="geometry" />
        </mxCell>
        <mxCell id="XepydL3lwaqerBywXfQd-20" value="" style="endArrow=classic;html=1;rounded=0;strokeWidth=1;fillColor=#f8cecc;strokeColor=#FF6666;exitX=0.5;exitY=1;exitDx=0;exitDy=0;entryX=0.5;entryY=0;entryDx=0;entryDy=0;" parent="1" source="XepydL3lwaqerBywXfQd-19" target="kNz7OTv42V5_Gx-poDlK-1" edge="1">
          <mxGeometry width="50" height="50" relative="1" as="geometry">
            <mxPoint x="310" y="280" as="sourcePoint" />
            <mxPoint x="430" y="270" as="targetPoint" />
          </mxGeometry>
        </mxCell>
        <mxCell id="XepydL3lwaqerBywXfQd-21" value="saturation" style="rounded=0;whiteSpace=wrap;html=1;fillColor=#CC99FF;strokeColor=#9933FF;strokeWidth=2;" parent="1" vertex="1">
          <mxGeometry x="805" y="325" width="70" height="80" as="geometry" />
        </mxCell>
        <mxCell id="XepydL3lwaqerBywXfQd-22" value="" style="endArrow=classic;html=1;rounded=0;strokeWidth=2;exitX=1;exitY=0.5;exitDx=0;exitDy=0;" parent="1" source="XepydL3lwaqerBywXfQd-21" edge="1">
          <mxGeometry width="50" height="50" relative="1" as="geometry">
            <mxPoint x="910" y="355" as="sourcePoint" />
            <mxPoint x="980" y="365" as="targetPoint" />
          </mxGeometry>
        </mxCell>
        <mxCell id="XepydL3lwaqerBywXfQd-23" value="$$u_{sat}$$" style="text;html=1;strokeColor=none;fillColor=none;align=center;verticalAlign=middle;whiteSpace=wrap;rounded=0;fontStyle=1;fontSize=15;" parent="1" vertex="1">
          <mxGeometry x="890" y="330" width="20" height="20" as="geometry" />
        </mxCell>
        <mxCell id="XepydL3lwaqerBywXfQd-24" value="" style="ellipse;whiteSpace=wrap;html=1;aspect=fixed;strokeColor=#6c8ebf;strokeWidth=2;fontSize=26;fillColor=#dae8fc;" parent="1" vertex="1">
          <mxGeometry x="425" y="450" width="40" height="40" as="geometry" />
        </mxCell>
        <mxCell id="XepydL3lwaqerBywXfQd-25" value="" style="endArrow=classic;html=1;rounded=0;strokeWidth=2;exitX=1;exitY=0.5;exitDx=0;exitDy=0;entryX=1;entryY=0;entryDx=0;entryDy=0;" parent="1" source="kTp0ixxDIyROOf1ZNulH-1" target="XepydL3lwaqerBywXfQd-24" edge="1">
          <mxGeometry width="50" height="50" relative="1" as="geometry">
            <mxPoint x="740" y="375" as="sourcePoint" />
            <mxPoint x="815" y="375" as="targetPoint" />
            <Array as="points">
              <mxPoint x="770" y="365" />
              <mxPoint x="770" y="400" />
              <mxPoint x="770" y="430" />
              <mxPoint x="500" y="430" />
            </Array>
          </mxGeometry>
        </mxCell>
        <mxCell id="XepydL3lwaqerBywXfQd-26" value="" style="endArrow=classic;html=1;rounded=0;strokeWidth=2;entryX=1;entryY=1;entryDx=0;entryDy=0;exitX=1;exitY=0.5;exitDx=0;exitDy=0;" parent="1" source="XepydL3lwaqerBywXfQd-21" target="XepydL3lwaqerBywXfQd-24" edge="1">
          <mxGeometry width="50" height="50" relative="1" as="geometry">
            <mxPoint x="740" y="375" as="sourcePoint" />
            <mxPoint x="469" y="476" as="targetPoint" />
            <Array as="points">
              <mxPoint x="910" y="365" />
              <mxPoint x="910" y="410" />
              <mxPoint x="910" y="440" />
              <mxPoint x="910" y="520" />
              <mxPoint x="650" y="520" />
              <mxPoint x="500" y="520" />
            </Array>
          </mxGeometry>
        </mxCell>
        <mxCell id="XepydL3lwaqerBywXfQd-27" value="+" style="text;html=1;strokeColor=none;fillColor=none;align=center;verticalAlign=middle;whiteSpace=wrap;rounded=0;fontStyle=1;fontSize=15;" parent="1" vertex="1">
          <mxGeometry x="450" y="430" width="20" height="20" as="geometry" />
        </mxCell>
        <mxCell id="XepydL3lwaqerBywXfQd-28" value="-" style="text;html=1;strokeColor=none;fillColor=none;align=center;verticalAlign=middle;whiteSpace=wrap;rounded=0;fontStyle=1;fontSize=15;" parent="1" vertex="1">
          <mxGeometry x="450" y="490" width="20" height="20" as="geometry" />
        </mxCell>
        <mxCell id="XepydL3lwaqerBywXfQd-30" value="" style="endArrow=classic;html=1;rounded=0;strokeWidth=2;entryX=0.5;entryY=1;entryDx=0;entryDy=0;exitX=0;exitY=0.5;exitDx=0;exitDy=0;" parent="1" source="XepydL3lwaqerBywXfQd-24" target="5sjL4nM-13YY5lFqkN-K-1" edge="1">
          <mxGeometry width="50" height="50" relative="1" as="geometry">
            <mxPoint x="540" y="358" as="sourcePoint" />
            <mxPoint x="590" y="358" as="targetPoint" />
            <Array as="points">
              <mxPoint x="370" y="470" />
            </Array>
          </mxGeometry>
        </mxCell>
        <mxCell id="XepydL3lwaqerBywXfQd-31" value="required current" style="text;html=1;strokeColor=none;fillColor=none;align=center;verticalAlign=middle;whiteSpace=wrap;rounded=0;fontStyle=1;fontSize=12;" parent="1" vertex="1">
          <mxGeometry x="920" y="325" width="130" height="20" as="geometry" />
        </mxCell>
        <mxCell id="g3yCfX2LrwGd0i3AvtjW-2" value="" style="endArrow=classic;html=1;rounded=0;strokeWidth=1;fillColor=#f8cecc;strokeColor=#FF6666;entryX=0;entryY=1;entryDx=0;entryDy=0;exitX=0.75;exitY=0;exitDx=0;exitDy=0;" edge="1" parent="1" source="XepydL3lwaqerBywXfQd-18" target="XepydL3lwaqerBywXfQd-24">
          <mxGeometry width="50" height="50" relative="1" as="geometry">
            <mxPoint x="310" y="470" as="sourcePoint" />
            <mxPoint x="370" y="395" as="targetPoint" />
          </mxGeometry>
        </mxCell>
      </root>
    </mxGraphModel>
  </diagram>
</mxfile>
